<svg id="visual" viewBox="0 0 900 600" width="900" height="600" xmlns="http://www.w3.org/2000/svg" xmlns:xlink="http://www.w3.org/1999/xlink" version="1.1"><rect x="0" y="0" width="900" height="600" fill="#f8f8f8"></rect><path d="M0 454L16.7 458.2C33.3 462.3 66.7 470.7 100 468.7C133.3 466.7 166.7 454.3 200 455.5C233.3 456.7 266.7 471.3 300 476.2C333.3 481 366.7 476 400 470.8C433.3 465.7 466.7 460.3 500 463.5C533.3 466.7 566.7 478.3 600 487.2C633.3 496 666.7 502 700 490.7C733.3 479.3 766.7 450.7 800 436.5C833.3 422.3 866.7 422.7 883.3 422.8L900 423L900 601L883.3 601C866.7 601 833.3 601 800 601C766.7 601 733.3 601 700 601C666.7 601 633.3 601 600 601C566.7 601 533.3 601 500 601C466.7 601 433.3 601 400 601C366.7 601 333.3 601 300 601C266.7 601 233.3 601 200 601C166.7 601 133.3 601 100 601C66.7 601 33.3 601 16.7 601L0 601Z" fill="#e7a207" stroke-linecap="round" stroke-linejoin="miter"></path></svg>