<svg id="visual" viewBox="0 0 900 600" width="900" height="600" xmlns="http://www.w3.org/2000/svg" xmlns:xlink="http://www.w3.org/1999/xlink" version="1.1"><rect x="0" y="0" width="900" height="600" fill="#f8f8f8"></rect><path d="M0 64L16.7 73.7C33.3 83.3 66.7 102.7 100 105.5C133.3 108.3 166.7 94.7 200 85C233.3 75.3 266.7 69.7 300 67.3C333.3 65 366.7 66 400 74.7C433.3 83.3 466.7 99.7 500 105.5C533.3 111.3 566.7 106.7 600 103.7C633.3 100.7 666.7 99.3 700 110C733.3 120.7 766.7 143.3 800 150.2C833.3 157 866.7 148 883.3 143.5L900 139L900 0L883.3 0C866.7 0 833.3 0 800 0C766.7 0 733.3 0 700 0C666.7 0 633.3 0 600 0C566.7 0 533.3 0 500 0C466.7 0 433.3 0 400 0C366.7 0 333.3 0 300 0C266.7 0 233.3 0 200 0C166.7 0 133.3 0 100 0C66.7 0 33.3 0 16.7 0L0 0Z" fill="#e7a207" stroke-linecap="round" stroke-linejoin="miter"></path></svg>